<?xml version="1.0" encoding="utf-8"?>
<!-- Generator: Adobe Illustrator 23.0.6, SVG Export Plug-In . SVG Version: 6.00 Build 0)  -->
<svg version="1.1" id="Capa_1" xmlns="http://www.w3.org/2000/svg" xmlns:xlink="http://www.w3.org/1999/xlink" x="0px" y="0px"
	 viewBox="0 0 16 16" style="enable-background:new 0 0 16 16;" xml:space="preserve">
<style type="text/css">
	.st0{fill:#333333;}
</style>
<g>
	<path class="st0" d="M8,12.9c-2.7,0-4.9-2.2-4.9-4.9c0-2.7,2.2-4.9,4.9-4.9c2.7,0,4.9,2.2,4.9,4.9C12.9,10.7,10.7,12.9,8,12.9z"/>
	<path class="st0" d="M8,3.6c2.43,0,4.4,1.97,4.4,4.4s-1.97,4.4-4.4,4.4S3.6,10.43,3.6,8S5.57,3.6,8,3.6 M8,2.6
		C5.02,2.6,2.6,5.02,2.6,8s2.42,5.4,5.4,5.4s5.4-2.42,5.4-5.4S10.98,2.6,8,2.6L8,2.6z"/>
</g>
</svg>
